<?xml version="1.0" standalone="no"?>
<!DOCTYPE svg PUBLIC "-//W3C//DTD SVG 20010904//EN"
 "http://www.w3.org/TR/2001/REC-SVG-20010904/DTD/svg10.dtd">
<svg version="1.0" xmlns="http://www.w3.org/2000/svg"
 width="920.000000pt" height="1288.000000pt" viewBox="0 0 920.000000 1288.000000"
 preserveAspectRatio="xMidYMid meet">
<metadata>
Created by potrace 1.16, written by Peter Selinger 2001-2019
</metadata>
<g transform="translate(0.000000,1288.000000) scale(0.100000,-0.100000)"
fill="#000000" stroke="none">
<path d="M4215 10774 c-16 -3 -97 -15 -180 -29 -82 -13 -184 -27 -225 -30 -41
-4 -94 -15 -117 -25 -23 -10 -72 -21 -108 -25 -56 -6 -68 -11 -77 -30 -15 -32
-100 -66 -200 -81 -33 -4 -48 -3 -48 5 0 6 -7 11 -15 11 -8 0 -15 -6 -15 -12
0 -7 -17 -24 -36 -36 -36 -23 -37 -24 -70 -6 -33 18 -34 18 -61 -2 -16 -12
-29 -31 -31 -43 -3 -21 -7 -22 -40 -16 -20 4 -41 7 -47 7 -44 -4 -106 -27
-196 -74 -58 -30 -117 -58 -130 -63 -19 -6 -20 -8 -7 -12 9 -2 35 5 58 17 23
12 49 20 58 18 11 -3 1 -11 -28 -24 -25 -12 -97 -50 -160 -86 -154 -88 -259
-140 -272 -136 -15 5 70 66 164 119 43 23 76 44 74 46 -10 10 -157 -75 -310
-179 -93 -62 -194 -127 -224 -145 -31 -17 -60 -40 -65 -50 -4 -10 -28 -29 -52
-42 -53 -28 -331 -271 -400 -349 -25 -28 -142 -125 -160 -133 -11 -4 -36 -10
-55 -13 -49 -8 -141 -89 -122 -107 16 -17 15 -29 -3 -29 -18 0 -19 -12 -4 -27
15 -15 -12 -64 -58 -102 -20 -17 -43 -41 -51 -53 -13 -23 -13 -23 -7 5 3 15 3
27 0 27 -12 0 -45 -86 -45 -116 0 -21 -27 -71 -95 -172 -52 -78 -116 -186
-141 -240 -26 -53 -92 -189 -147 -302 -116 -239 -111 -227 -181 -474 -147
-523 -217 -881 -234 -1211 -5 -93 -11 -130 -19 -131 -58 -6 -59 -6 -28 -13 26
-5 30 -11 33 -44 2 -21 -3 -58 -12 -82 -11 -34 -12 -43 -1 -39 7 3 16 -3 19
-13 13 -32 25 -327 14 -346 -7 -14 -5 -22 6 -30 21 -16 34 -131 17 -151 -8
-10 -9 -16 -1 -21 25 -15 9 -58 -42 -111 -41 -42 -54 -63 -60 -96 -3 -24 -9
-61 -13 -83 -5 -34 1 -54 34 -125 49 -104 45 -115 -41 -107 -32 3 -58 4 -58 2
0 -2 23 -17 50 -34 70 -43 138 -108 161 -153 22 -44 42 -48 65 -14 21 33 44
23 44 -19 0 -20 6 -35 15 -39 10 -3 15 -19 15 -43 0 -21 12 -69 27 -108 94
-253 97 -271 55 -355 l-20 -41 29 -15 c29 -14 31 -34 5 -34 -10 0 -11 -9 -1
-47 7 -27 9 -57 4 -69 -5 -14 -3 -26 5 -35 8 -8 16 -29 19 -47 6 -29 3 -33
-26 -46 -17 -8 -26 -15 -19 -15 6 -1 12 -8 12 -16 0 -8 5 -15 10 -15 6 0 23
-26 38 -58 20 -41 34 -58 50 -60 26 -4 28 3 7 24 -21 22 -18 53 10 99 14 22
25 53 25 68 0 16 4 26 10 22 6 -3 10 -31 10 -61 0 -52 2 -57 52 -108 29 -29
65 -61 81 -70 18 -12 27 -27 27 -44 0 -63 87 -174 212 -270 27 -20 48 -41 48
-48 0 -7 10 -9 24 -7 20 4 28 -1 41 -27 10 -19 15 -44 11 -60 -3 -19 1 -34 15
-49 26 -28 32 -27 26 5 -5 30 16 43 44 25 17 -10 21 -8 29 15 7 18 15 24 26
20 9 -3 24 -6 35 -6 34 0 67 -45 90 -120 12 -39 33 -85 47 -102 15 -17 27 -38
29 -47 2 -16 60 -71 75 -71 4 0 8 7 8 15 0 11 11 15 39 15 31 0 47 -7 75 -33
28 -26 36 -30 39 -18 3 11 8 6 15 -14 7 -16 17 -38 23 -49 8 -14 8 -21 -2 -27
-10 -6 -11 -11 -3 -19 8 -8 29 -5 76 11 60 21 69 22 123 10 47 -11 67 -22 112
-66 30 -29 64 -57 76 -62 38 -18 223 -160 252 -194 15 -19 34 -48 43 -66 15
-31 19 -33 65 -33 26 0 57 5 69 11 15 8 37 7 82 -2 55 -11 65 -10 89 5 14 10
36 17 49 16 69 -6 76 10 21 43 -34 20 -36 22 -15 25 46 7 228 -56 275 -95 35
-29 75 -29 152 -3 74 26 96 25 130 -2 20 -15 30 -18 33 -10 5 16 34 15 58 -3
10 -8 29 -15 40 -15 12 0 50 -14 84 -31 34 -16 101 -40 148 -51 48 -11 109
-26 136 -32 51 -12 75 -36 37 -36 -47 0 -16 -16 52 -28 39 -6 109 -18 155 -27
147 -26 383 -47 485 -42 99 4 138 -6 70 -19 -21 -4 -143 -4 -273 -1 -186 5
-250 11 -310 26 -41 11 -150 27 -243 36 -92 8 -181 18 -198 22 -29 6 -30 5
-18 -14 6 -11 35 -27 63 -36 60 -19 262 -63 326 -71 261 -33 384 -46 439 -46
36 0 73 -5 81 -11 26 -19 -281 -2 -479 26 -101 14 -196 25 -212 23 -25 -3 -26
-5 -14 -21 23 -32 247 -62 628 -83 64 -4 117 -4 117 -1 0 3 -4 17 -10 31 -9
25 -8 26 23 26 45 0 66 -15 35 -25 -21 -7 -20 -8 12 -15 19 -4 40 -9 45 -10 6
-2 24 2 40 9 21 9 51 11 100 5 150 -16 307 -4 394 31 78 32 148 41 192 26 28
-10 35 -9 54 9 15 14 24 17 32 9 7 -7 17 -8 25 -3 7 5 49 16 93 26 79 17 100
23 330 91 66 19 138 38 160 42 22 4 46 12 54 18 8 7 16 11 18 9 2 -1 20 5 41
14 69 29 110 43 116 37 3 -4 6 1 6 9 0 17 26 32 40 23 4 -3 21 2 36 10 16 8
36 15 44 15 8 0 28 9 43 19 16 10 37 17 47 14 34 -9 347 162 565 307 227 152
559 418 561 449 2 31 4 33 19 21 22 -18 55 11 238 202 362 379 565 666 786
1105 217 434 379 977 436 1465 18 152 18 148 0 148 -25 0 -28 27 -6 58 44 62
48 112 10 112 -23 0 -25 23 -3 41 15 12 16 34 10 189 -8 218 -14 255 -41 255
-16 0 -19 6 -17 25 2 14 10 29 18 33 18 11 18 37 -6 192 -28 189 -82 405 -100
405 -5 0 -4 -14 2 -31 13 -36 2 -52 -18 -25 -18 25 -17 74 1 106 19 33 18 40
-6 69 -26 32 -33 22 -15 -21 15 -34 13 -48 -6 -48 -4 0 -8 8 -8 18 0 54 -152
438 -246 622 -41 79 -72 150 -69 157 2 8 -2 16 -11 20 -8 3 -40 54 -69 114
-70 139 -264 435 -349 532 -36 42 -66 83 -66 91 0 9 -9 20 -20 26 -11 6 -45
43 -76 83 -31 39 -156 171 -278 293 -121 121 -229 233 -239 247 -10 15 -25 27
-34 27 -9 0 -39 19 -67 43 -303 256 -705 492 -1071 630 -332 125 -795 242
-1075 272 -67 7 -973 15 -1015 9z m900 -699 c145 -19 287 -42 338 -56 43 -11
51 -34 10 -25 -197 39 -523 71 -843 81 -208 7 -216 8 -135 15 125 10 505 2
630 -15z m-868 -140 c32 3 99 8 148 10 50 3 104 5 120 6 17 1 127 -4 245 -11
118 -7 242 -14 275 -15 33 -2 89 -11 125 -21 36 -9 90 -18 120 -19 30 -2 62
-5 70 -8 16 -7 260 -66 380 -92 41 -9 91 -27 110 -40 19 -13 51 -28 70 -34
154 -47 202 -65 207 -77 6 -16 68 -35 89 -27 20 8 7 23 -21 23 -28 0 -43 19
-25 30 18 11 39 2 83 -37 20 -18 46 -33 56 -33 23 0 36 -16 21 -25 -5 -3 -23
1 -39 10 -35 18 -41 18 -41 5 0 -5 37 -27 83 -49 45 -22 93 -49 106 -60 13
-12 29 -21 35 -21 11 0 75 -44 150 -101 18 -15 45 -23 74 -24 37 -2 50 -8 79
-39 19 -20 39 -36 45 -36 5 0 7 -7 4 -16 -7 -18 21 -70 54 -99 19 -17 21 -17
39 -1 11 10 25 15 32 10 9 -5 7 -11 -7 -21 -16 -12 -17 -15 -4 -23 23 -14 31
-12 37 10 3 11 9 20 14 20 13 0 11 -37 -2 -45 -22 -14 -1 -30 34 -27 22 2 37
-1 37 -7 0 -6 -7 -11 -15 -11 -8 0 -15 -6 -15 -13 0 -22 31 -57 50 -57 11 0
27 -11 36 -25 12 -19 25 -25 50 -25 27 0 34 -4 34 -19 0 -10 -7 -24 -15 -31
-13 -11 -13 -15 -3 -21 7 -5 22 -9 32 -9 26 0 56 -28 49 -46 -3 -8 0 -28 7
-44 9 -22 19 -30 37 -30 29 0 74 -22 94 -46 12 -15 12 -16 -9 -10 -33 11 -28
-17 11 -61 19 -21 47 -62 62 -91 16 -29 41 -60 56 -69 15 -9 25 -22 23 -28 -3
-7 11 -31 31 -54 19 -24 35 -47 35 -52 0 -6 9 -20 21 -32 22 -24 62 -97 74
-137 4 -14 14 -33 22 -42 9 -10 19 -39 24 -65 11 -57 22 -71 44 -53 21 18 32
4 16 -21 -11 -19 -10 -20 8 -14 16 5 18 2 14 -14 -3 -12 4 -31 16 -47 25 -31
27 -62 6 -70 -8 -4 -15 -11 -15 -17 0 -7 4 -7 12 1 15 15 28 15 28 0 0 -6 8
-20 17 -30 21 -24 25 -88 4 -88 -11 0 -9 -6 7 -23 31 -33 62 -109 69 -170 7
-62 -3 -58 -20 9 -15 59 -37 71 -37 20 0 -30 10 -47 56 -97 46 -50 55 -66 51
-87 -3 -15 3 -61 13 -102 11 -41 26 -145 34 -230 9 -85 21 -199 28 -252 11
-99 9 -155 -16 -448 -8 -91 -16 -187 -17 -215 -1 -27 -8 -62 -16 -77 -7 -15
-10 -33 -7 -42 3 -8 1 -23 -5 -34 -20 -38 -64 -218 -62 -256 1 -27 -6 -51 -24
-77 -14 -21 -25 -48 -25 -59 0 -11 -29 -95 -65 -187 -36 -92 -64 -174 -63
-183 2 -9 -2 -28 -8 -41 -30 -69 -178 -356 -189 -369 -7 -8 -18 -33 -24 -55
-7 -28 -20 -45 -40 -57 -17 -9 -37 -33 -45 -52 -8 -20 -22 -39 -31 -42 -12 -5
-14 -14 -10 -35 6 -26 4 -29 -19 -29 -21 0 -26 -5 -26 -23 0 -16 -20 -42 -61
-80 -54 -49 -60 -59 -55 -84 6 -26 3 -30 -26 -38 -27 -8 -33 -15 -31 -37 1
-24 -3 -28 -43 -36 -25 -6 -53 -8 -63 -5 -27 7 -34 -13 -15 -42 9 -14 15 -25
13 -26 -2 0 -19 -1 -38 -2 -24 -2 -38 -9 -49 -27 -9 -14 -33 -41 -54 -61 -21
-20 -38 -41 -38 -47 0 -7 -4 -12 -10 -12 -5 0 -24 -15 -42 -33 -18 -18 -41
-31 -50 -29 -12 2 -15 -2 -11 -18 4 -16 2 -19 -11 -14 -12 5 -19 0 -23 -15 -3
-12 -13 -21 -25 -21 -24 0 -98 -56 -98 -75 0 -7 -20 -18 -44 -24 -29 -7 -47
-18 -51 -30 -3 -11 -18 -22 -33 -26 -15 -3 -53 -28 -85 -55 -36 -31 -68 -50
-83 -50 -32 0 -64 -17 -64 -34 0 -8 -17 -16 -42 -20 -24 -4 -72 -24 -108 -44
-67 -39 -320 -140 -483 -193 -144 -47 -292 -77 -414 -85 -101 -6 -212 1 -200
12 2 3 69 18 147 34 137 28 278 69 310 90 25 16 -3 12 -128 -19 -127 -31 -247
-57 -302 -66 -19 -3 -111 -8 -205 -11 -130 -5 -186 -2 -240 9 -38 8 -72 13
-74 11 -2 -1 6 -15 18 -30 11 -15 21 -30 21 -34 0 -9 -147 -6 -157 3 -11 12
-21 8 -26 -13 -5 -18 -14 -20 -80 -20 -43 0 -79 -5 -82 -11 -12 -18 0 -19 82
-8 64 8 107 7 214 -6 74 -9 152 -20 174 -25 22 -5 64 -10 94 -10 49 0 53 2 48
20 -5 19 -2 20 45 14 28 -4 88 -7 134 -8 45 -1 80 -4 77 -8 -2 -5 -49 -8 -103
-8 -55 0 -102 -4 -105 -10 -3 -5 0 -10 7 -11 43 -2 -43 -17 -127 -23 -228 -14
-260 -18 -277 -34 -20 -17 -98 -13 -262 12 -228 36 -317 48 -321 44 -3 -3 15
-24 40 -47 30 -27 54 -41 72 -41 16 0 60 -7 98 -16 216 -47 198 -46 399 -35
286 15 490 48 796 127 111 29 141 37 358 104 89 28 165 50 169 50 3 0 0 -7 -7
-15 -7 -8 -20 -15 -30 -15 -9 0 -38 -11 -63 -24 -25 -14 -83 -37 -129 -51 -46
-15 -114 -38 -153 -51 -38 -13 -79 -24 -90 -24 -12 0 -26 -5 -33 -12 -28 -28
-558 -108 -825 -124 -105 -7 -344 6 -596 31 -181 19 -177 19 -161 0 6 -8 39
-20 71 -26 33 -6 61 -15 64 -19 2 -4 27 -5 54 -2 31 3 67 -2 100 -13 28 -9 54
-14 59 -11 4 2 26 1 48 -4 21 -5 111 -10 199 -11 88 -1 198 -6 245 -12 131
-15 439 5 630 42 243 47 478 112 735 205 55 20 110 36 121 36 12 0 27 6 33 14
7 8 31 18 54 21 58 10 164 51 210 81 59 39 39 38 -34 -1 -68 -37 -134 -50 -94
-19 11 9 47 29 80 46 76 39 330 205 514 337 79 57 145 101 147 98 9 -9 -39
-57 -58 -57 -11 0 -22 -8 -24 -18 -3 -9 -46 -44 -97 -77 -98 -64 -245 -174
-267 -200 -12 -14 -11 -18 0 -25 17 -11 -1 -36 -33 -46 -12 -3 -53 -27 -92
-52 -133 -88 -373 -202 -580 -276 -165 -59 -531 -166 -568 -166 -14 0 -55 -9
-91 -21 -44 -13 -88 -19 -129 -18 -35 2 -116 -8 -187 -21 -118 -23 -144 -25
-465 -24 -263 0 -370 4 -470 18 -118 15 -340 37 -390 38 -11 0 -39 7 -62 15
-23 9 -53 13 -67 9 -19 -5 -26 -2 -31 13 -3 11 -22 25 -41 31 -20 7 -39 21
-43 33 -7 18 -30 28 -122 51 -63 17 -142 44 -177 61 -54 27 -64 30 -71 17 -8
-13 -13 -14 -42 -2 -42 16 -59 30 -37 30 9 0 20 -4 23 -10 3 -5 11 -10 18 -10
6 0 0 12 -15 26 -24 24 -29 26 -59 15 -26 -9 -37 -8 -56 4 -12 9 -23 22 -23
30 0 8 -4 15 -10 15 -35 0 35 -67 110 -105 27 -14 65 -38 83 -55 19 -16 42
-30 51 -30 9 0 16 -6 16 -14 0 -19 -51 -12 -145 22 -97 34 -197 87 -280 149
-38 29 -76 53 -82 53 -15 0 -17 19 -5 38 14 20 55 -1 92 -48 23 -28 39 -40 54
-38 11 1 27 -1 34 -6 20 -12 42 1 42 24 0 12 10 25 25 32 22 10 33 8 70 -10
32 -15 46 -18 51 -10 4 7 2 14 -5 16 -6 2 -25 15 -41 28 -15 14 -34 23 -41 22
-8 -2 -21 12 -31 31 -9 19 -24 39 -33 43 -32 18 -17 38 29 38 25 0 56 4 70 9
28 11 50 -6 41 -31 -4 -9 4 -19 20 -26 23 -11 36 0 15 13 -5 3 9 24 30 47 36
37 44 40 76 35 44 -7 70 4 78 36 5 22 18 31 79 56 33 13 35 27 3 35 -22 5 -23
9 -14 34 6 16 8 41 4 55 -5 21 -12 27 -33 27 l-27 0 22 -16 c25 -17 31 -60 8
-51 -8 3 -33 11 -54 17 -22 5 -62 25 -89 43 -44 29 -48 35 -49 74 -1 24 -7 57
-13 74 -15 45 -14 94 4 109 23 19 18 45 -10 58 -37 17 -50 15 -34 -4 10 -13
10 -17 -2 -25 -33 -21 -55 -5 -34 25 29 41 20 56 -34 56 -38 0 -53 5 -64 20
-15 22 -53 39 -112 51 -22 4 -59 12 -82 17 -38 8 -42 7 -52 -15 -13 -28 -44
-30 -70 -4 -15 15 -19 28 -14 55 4 29 -1 45 -29 88 -19 29 -45 73 -57 97 -22
43 -22 44 -2 65 19 21 19 21 -5 50 -16 18 -24 38 -22 56 3 33 -98 172 -143
195 -20 11 -29 23 -29 40 0 13 -7 28 -15 32 -29 16 -170 349 -250 587 -98 294
-176 687 -194 977 -5 76 -11 141 -14 146 -2 4 -1 94 4 198 5 105 8 218 8 252
0 67 40 310 71 433 22 87 80 255 137 400 71 181 213 417 367 610 215 268 645
648 884 780 27 16 39 27 32 34 -15 15 -328 -200 -470 -324 -80 -70 -90 -76
-90 -56 0 9 5 16 11 16 6 0 47 34 92 76 93 88 249 208 359 276 76 47 308 168
322 168 4 0 44 16 89 36 142 63 342 129 424 140 18 2 48 12 66 21 31 17 76 25
227 42 41 5 117 19 168 31 75 19 102 21 136 13 26 -6 52 -6 67 -1 15 6 59 5
114 -1 50 -6 131 -13 180 -17 143 -9 441 -53 550 -80 199 -49 375 -119 375
-149 0 -19 84 -60 102 -49 6 4 20 -4 32 -18 12 -13 46 -35 76 -47 210 -88 497
-298 715 -522 206 -212 381 -458 477 -669 9 -19 35 -75 57 -125 23 -49 58
-141 77 -204 20 -63 45 -135 57 -160 11 -25 21 -62 22 -81 2 -19 15 -68 29
-108 14 -41 26 -95 26 -120 0 -26 4 -74 9 -107 51 -332 37 -583 -70 -1260 -27
-171 -51 -281 -75 -337 -70 -166 -151 -327 -185 -368 -20 -25 -50 -76 -64
-113 -20 -50 -35 -72 -56 -83 -22 -11 -29 -22 -29 -43 0 -16 -6 -31 -15 -35
-8 -3 -15 -11 -15 -19 0 -7 -13 -26 -30 -42 -31 -30 -37 -49 -20 -60 18 -11
58 23 96 80 20 30 47 61 60 70 13 8 24 24 24 35 0 10 13 28 28 39 19 13 46 58
81 133 67 145 66 142 83 146 25 5 12 -63 -32 -157 -22 -48 -40 -100 -40 -114
0 -20 -5 -27 -20 -27 -25 0 -25 -8 0 -35 20 -22 20 -22 1 -46 -12 -16 -17 -34
-14 -50 3 -16 -5 -45 -21 -77 -25 -50 -32 -82 -20 -95 13 -12 35 7 65 56 17
29 35 54 40 57 5 3 19 37 32 75 14 39 48 126 76 194 32 77 55 150 62 195 18
128 58 317 109 516 75 294 107 445 121 566 7 60 18 117 25 127 8 12 9 30 4 53
-5 20 -4 49 0 65 5 16 10 79 11 140 2 105 4 112 31 142 30 35 33 43 18 52 -17
10 -11 25 10 25 22 0 27 15 9 26 -8 4 -7 9 2 15 10 6 6 9 -13 9 -33 0 -44 15
-21 29 17 10 16 11 -4 17 -20 5 -23 13 -23 55 0 35 4 49 14 49 7 0 16 -9 19
-20 6 -22 27 -27 27 -6 0 7 -9 25 -21 40 -11 15 -18 33 -15 42 3 8 -1 34 -9
57 -8 24 -18 61 -23 82 -6 30 -13 41 -32 45 -32 8 -39 39 -11 47 29 7 26 21
-4 29 -19 5 -23 9 -15 19 7 9 6 16 -5 25 -12 10 -14 24 -9 62 5 37 3 53 -9 66
-9 10 -23 49 -32 87 -21 92 -90 263 -185 460 -164 337 -283 501 -573 788 -207
205 -229 221 -266 198 -15 -10 -6 -31 13 -31 8 0 13 -7 12 -16 0 -10 20 -27
52 -45 30 -15 109 -81 177 -144 93 -88 141 -142 192 -218 38 -57 82 -111 100
-122 25 -16 32 -27 33 -52 0 -22 7 -36 20 -43 11 -6 20 -15 20 -20 0 -6 20
-39 45 -76 32 -46 45 -75 45 -100 0 -21 -5 -34 -13 -34 -17 0 -37 20 -37 38 0
12 3 12 15 2 50 -42 3 54 -70 143 -31 37 -111 124 -179 194 -68 71 -152 161
-187 201 -39 44 -102 100 -159 140 -52 36 -111 81 -130 99 -184 173 -561 387
-855 485 -189 63 -391 110 -605 140 -130 19 -200 22 -435 22 -235 0 -305 -3
-435 -22 -404 -57 -804 -189 -1027 -339 -32 -22 -72 -44 -89 -50 -29 -10 -86
-49 -254 -172 -41 -30 -102 -83 -136 -118 -33 -35 -65 -63 -70 -63 -5 0 -34
-20 -64 -45 -30 -25 -62 -48 -70 -50 -8 -3 -27 -22 -43 -42 -15 -20 -62 -75
-105 -122 -115 -127 -143 -159 -197 -231 -62 -83 -186 -212 -246 -256 -37 -27
-56 -34 -93 -34 -50 0 -52 1 -34 30 17 27 2 37 -24 14 l-22 -19 15 25 c9 14
27 27 40 28 12 2 35 17 51 34 15 16 32 27 38 23 5 -3 41 19 79 49 l69 55 -5
43 c-6 42 -6 43 14 26 11 -10 25 -18 31 -18 17 0 15 48 -3 57 -28 16 15 115
85 193 71 80 81 108 11 33 -48 -53 -80 -70 -66 -35 4 9 11 32 15 50 22 91 202
274 475 483 156 119 242 179 248 173 10 -10 47 17 47 34 0 11 43 41 129 90
202 113 400 200 641 278 57 19 111 41 120 49 9 8 48 19 87 24 39 5 80 14 92
21 13 6 25 9 28 6 3 -3 17 1 32 8 14 8 53 17 86 21 92 10 125 23 125 48 1 21
1 21 15 4 12 -16 22 -18 72 -12z m-2623 -3141 c-12 -124 -15 -224 -11 -374 11
-400 65 -705 196 -1111 27 -82 46 -149 42 -149 -10 0 -67 62 -80 87 -6 12 -11
37 -11 56 0 18 -13 60 -30 92 -17 32 -30 74 -30 94 0 19 -13 83 -30 141 -39
138 -79 349 -68 356 5 3 6 15 2 26 -10 32 -10 122 -1 135 6 9 4 15 -7 19 -13
5 -15 14 -11 34 3 15 -1 57 -9 92 -14 60 -14 122 -2 251 3 28 1 37 -12 37 -13
0 -13 2 1 18 9 10 16 26 15 37 0 11 3 81 7 155 7 116 11 138 28 157 11 13 22
21 24 20 2 -2 -4 -80 -13 -173z m6061 -2212 c-31 -60 -74 -131 -96 -157 -21
-26 -39 -53 -39 -61 0 -7 -9 -22 -21 -33 -13 -12 -17 -21 -10 -26 19 -11 12
-25 -13 -25 -36 0 -96 -74 -96 -117 0 -33 -12 -43 -26 -21 -5 8 -10 4 -15 -10
-7 -18 -66 -59 -74 -50 -1 2 28 44 66 93 205 267 282 372 325 445 26 44 49 78
51 76 3 -3 -21 -54 -52 -114z m-1505 -1288 c0 -4 -8 -13 -17 -20 -10 -7 -18
-21 -18 -31 0 -14 -12 -20 -53 -27 -49 -9 -53 -12 -47 -33 5 -21 2 -23 -35
-23 -22 0 -40 -5 -40 -11 0 -6 -6 -9 -12 -6 -7 2 -26 -2 -41 -10 -15 -8 -69
-29 -120 -47 -51 -19 -121 -46 -157 -61 -67 -29 -249 -66 -410 -84 -52 -6
-122 -18 -155 -25 -33 -8 -64 -11 -68 -6 -9 8 74 30 193 50 147 25 262 56 412
111 86 32 184 65 216 73 68 18 223 88 267 121 35 26 85 43 85 29z m-2707 -634
c65 0 135 -7 717 -75 113 -13 252 -26 308 -29 57 -3 107 -7 110 -10 3 -3 -3
-6 -14 -7 -10 0 -30 -2 -44 -4 -55 -6 -225 -7 -410 -1 -362 12 -415 15 -495
35 -44 10 -113 24 -154 31 -54 9 -81 19 -98 36 -31 31 -30 46 3 34 14 -6 49
-10 77 -10z"/>
<path d="M4300 9820 c-19 -4 -55 -11 -80 -14 -153 -20 -144 -32 20 -28 88 3
130 0 130 -7 0 -7 -22 -11 -54 -11 -30 0 -58 -5 -61 -10 -4 -7 2 -9 17 -6 12
3 75 7 138 11 63 3 133 10 154 15 30 7 47 5 69 -7 26 -13 36 -13 69 -2 32 10
47 10 81 0 23 -7 58 -14 77 -15 19 -2 69 -13 110 -25 50 -15 109 -24 176 -26
77 -2 110 -8 141 -23 26 -14 44 -17 54 -11 21 13 39 11 39 -5 0 -9 19 -15 59
-19 43 -3 77 -15 126 -42 48 -27 78 -37 108 -37 23 1 46 -3 52 -8 27 -22 117
-48 143 -41 l27 8 -39 17 c-21 9 -51 16 -67 16 -18 0 -32 7 -39 20 -14 26 -57
48 -111 56 -24 4 -66 15 -93 26 -34 13 -52 16 -61 8 -8 -7 -18 -5 -33 8 -14
12 -91 32 -239 61 -120 23 -267 53 -328 67 -88 19 -117 22 -145 14 -57 -16
-225 -13 -240 5 -14 17 -136 20 -200 5z"/>
<path d="M6827 4644 c-26 -31 -65 -69 -87 -85 -22 -16 -40 -35 -40 -42 0 -14
-181 -186 -295 -278 -71 -58 -294 -226 -382 -288 -18 -12 -37 -20 -42 -16 -5
3 -12 1 -16 -5 -3 -5 -31 -22 -60 -37 -58 -28 -89 -55 -84 -72 2 -6 65 26 139
72 302 185 479 319 678 511 96 92 252 269 252 285 0 22 -17 10 -63 -45z"/>
<path d="M5365 3663 c-176 -62 -676 -172 -809 -178 -48 -3 -74 -9 -85 -20 -15
-16 -13 -17 19 -12 19 3 100 15 180 26 221 32 364 59 490 92 171 45 320 96
320 110 0 14 -40 8 -115 -18z"/>
</g>
</svg>
